<?xml version="1.0" standalone="no"?>
<!DOCTYPE svg PUBLIC "-//W3C//DTD SVG 20010904//EN"
 "http://www.w3.org/TR/2001/REC-SVG-20010904/DTD/svg10.dtd">
<svg version="1.0" xmlns="http://www.w3.org/2000/svg"
 width="500.000000pt" height="500.000000pt" viewBox="0 0 500.000000 500.000000"
 preserveAspectRatio="xMidYMid meet">

<g transform="translate(0.000000,500.000000) scale(0.100000,-0.100000)"
fill="#000000" stroke="none">
<path d="M1931 3493 c-12 -10 -24 -35 -28 -56 -5 -33 -2 -41 28 -70 l34 -32
-3 -102 c-2 -76 -6 -103 -16 -103 -23 0 -56 -45 -56 -76 0 -35 -44 -69 -59
-46 -22 36 -106 29 -140 -12 -13 -16 -16 -15 -41 9 -24 23 -26 31 -22 78 3 43
0 56 -17 74 -75 80 -202 -4 -156 -101 19 -40 62 -61 106 -52 26 5 38 0 68 -26
20 -17 39 -43 43 -56 13 -48 -34 -101 -89 -102 -33 0 -33 0 -33 -49 0 -48 0
-48 38 -55 47 -7 81 -41 89 -90 5 -35 16 -45 28 -27 3 5 19 12 35 16 16 4 32
10 35 14 8 15 -16 80 -41 110 l-25 30 20 23 c12 12 21 25 21 30 0 4 18 15 40
24 45 18 70 55 70 102 0 37 30 48 71 26 58 -29 124 19 117 85 -4 31 1 38 64
92 74 64 74 64 112 49 31 -11 70 1 104 32 31 30 31 97 -2 135 -21 24 -32 28
-74 28 -34 0 -56 -6 -70 -18 -19 -18 -22 -18 -65 2 -39 18 -45 25 -51 60 -7
47 -36 71 -82 71 -18 0 -41 -8 -53 -17z m93 -29 c20 -20 20 -48 0 -68 -32 -32
-94 -10 -94 34 0 26 27 50 55 50 13 0 31 -7 39 -16z m79 -113 c42 -18 44 -22
50 -68 6 -47 6 -49 -41 -91 -118 -108 -136 -94 -116 96 5 48 11 62 28 70 29
14 29 14 79 -7z m195 -1 c26 -25 29 -76 5 -102 -24 -27 -87 -24 -107 4 -52 74
37 158 102 98z m-718 -210 c11 -11 20 -31 20 -45 0 -30 -32 -65 -59 -65 -24 0
-57 29 -65 56 -9 29 28 74 60 74 13 0 33 -9 44 -20z m428 -52 c7 -7 12 -24 12
-38 0 -33 -17 -50 -50 -50 -33 0 -50 17 -50 50 0 33 17 50 50 50 14 0 31 -5
38 -12z m-196 -105 c41 -37 10 -103 -47 -103 -39 0 -58 20 -58 60 0 16 5 36
13 44 17 21 69 20 92 -1z"/>
<path d="M1759 3287 c-43 -29 -68 -92 -68 -176 -1 -56 1 -62 17 -56 9 4 32 9
50 12 31 5 32 7 32 52 0 69 20 91 81 91 l49 0 0 50 0 50 -64 0 c-49 0 -70 -5
-97 -23z"/>
<path d="M3080 3260 l0 -50 50 0 c70 0 76 -14 84 -180 6 -153 16 -196 52 -240
14 -16 22 -30 17 -30 -14 0 -50 -70 -58 -110 -3 -19 -9 -93 -14 -163 -9 -146
-14 -156 -85 -164 l-46 -6 0 -43 0 -44 58 0 c74 0 120 23 146 74 16 31 21 69
27 186 4 101 11 156 22 176 17 33 54 54 92 54 23 0 25 4 25 50 0 50 0 50 -33
50 -40 0 -75 23 -89 59 -6 14 -14 91 -18 171 -9 214 -39 260 -167 260 l-63 0
0 -50z"/>
<path d="M2567 3093 c-14 -49 -44 -149 -66 -223 -21 -74 -51 -175 -66 -225
-15 -49 -35 -117 -46 -149 -27 -85 -27 -86 30 -86 l48 0 37 128 c21 70 41 141
46 157 5 17 22 75 38 130 52 172 102 344 102 349 0 3 -22 6 -49 6 l-48 0 -26
-87z"/>
<path d="M2148 2938 l-168 -102 0 -47 0 -47 163 -97 c89 -54 165 -100 170
-102 4 -2 7 18 7 46 l0 50 -60 36 c-33 20 -60 41 -60 46 0 5 45 9 100 9 82 0
100 3 100 15 0 13 -23 15 -142 15 -106 1 -148 4 -161 15 -18 13 -18 14 2 24
11 6 79 11 160 11 117 0 141 2 141 15 0 12 -22 15 -117 17 l-118 3 58 35 c98
59 99 59 95 112 l-3 48 -167 -102z"/>
<path d="M2750 2991 l0 -52 78 -49 77 -50 -107 0 c-89 0 -108 -3 -108 -15 0
-13 21 -15 129 -15 170 0 193 -9 127 -49 -29 -18 -49 -21 -145 -21 -91 0 -111
-3 -111 -15 0 -11 18 -15 82 -17 l83 -3 -53 -34 c-51 -33 -52 -34 -52 -83 l0
-50 38 23 c144 86 270 164 285 177 26 23 22 78 -7 103 -23 20 -172 114 -256
161 -19 11 -41 25 -47 30 -10 8 -13 -1 -13 -41z"/>
<path d="M1845 2631 c-12 -5 -27 -16 -34 -25 -7 -9 -22 -16 -33 -16 -25 0 -70
-24 -143 -75 -54 -39 -64 -43 -105 -38 -63 7 -95 -18 -95 -77 0 -51 30 -80 82
-80 51 0 87 40 80 89 -4 36 -3 38 67 88 39 28 83 54 97 58 23 6 27 3 33 -19
10 -39 45 -66 87 -66 34 0 41 -5 94 -76 55 -73 56 -76 41 -99 -35 -54 -9 -136
51 -162 125 -52 225 111 118 193 -29 21 -43 25 -84 22 l-49 -3 -57 74 c-48 63
-56 77 -46 93 39 63 -35 148 -104 119z m65 -41 c11 -11 20 -28 20 -37 0 -25
-30 -53 -56 -53 -23 0 -54 33 -54 57 0 18 37 53 55 53 8 0 24 -9 35 -20z
m-352 -152 c7 -7 12 -24 12 -38 0 -33 -17 -50 -51 -50 -32 0 -59 23 -59 50 0
41 68 68 98 38z m617 -144 c52 -56 15 -138 -62 -138 -72 0 -109 89 -58 139 34
35 88 34 120 -1z"/>
<path d="M1726 2497 l-38 -22 4 -67 c9 -125 60 -178 171 -178 l57 0 0 45 c0
41 -2 45 -24 45 -84 0 -106 24 -106 115 0 54 -7 85 -19 85 -3 0 -23 -10 -45
-23z"/>
<path d="M3080 1686 l0 -114 38 -1 c20 -1 48 -2 62 -2 31 -1 70 43 70 80 0 16
-10 41 -22 56 -19 25 -26 27 -70 23 l-48 -5 0 38 c0 28 -4 39 -15 39 -12 0
-15 -19 -15 -114z m118 2 c7 -7 12 -24 12 -38 0 -14 -5 -31 -12 -38 -28 -28
-88 -2 -88 38 0 40 60 66 88 38z"/>
<path d="M3295 1790 c-8 -14 3 -30 21 -30 8 0 14 9 14 20 0 21 -24 28 -35 10z"/>
<path d="M1030 1680 c0 -91 3 -110 15 -110 10 0 15 10 15 34 0 33 1 34 50 41
56 8 80 31 80 77 0 45 -34 68 -102 68 l-58 0 0 -110z m117 53 c21 -27 -2 -53
-47 -53 -39 0 -40 1 -40 33 0 19 2 36 5 39 10 10 70 -5 82 -19z"/>
<path d="M2341 1761 c-27 -25 -31 -36 -31 -80 0 -42 5 -56 29 -83 25 -28 35
-32 79 -32 36 0 57 6 72 19 19 17 19 20 4 28 -10 6 -20 5 -27 -2 -17 -17 -72
-13 -98 8 -34 27 -32 86 5 117 31 27 62 30 93 9 18 -12 23 -13 32 -1 18 22
-24 46 -80 46 -38 0 -53 -6 -78 -29z"/>
<path d="M2116 1773 c-3 -4 -6 -15 -6 -25 0 -10 -4 -18 -10 -18 -5 0 -10 -7
-10 -15 0 -8 5 -15 10 -15 6 0 10 -21 10 -46 0 -61 14 -84 50 -84 20 0 30 5
30 15 0 8 -9 15 -20 15 -17 0 -20 7 -20 50 0 43 3 50 20 50 11 0 20 7 20 15 0
8 -9 15 -20 15 -13 0 -20 7 -20 19 0 19 -23 35 -34 24z"/>
<path d="M1230 1650 c0 -73 2 -80 20 -80 17 0 20 7 20 50 0 42 4 52 25 66 27
17 34 44 12 44 -7 0 -18 -5 -25 -12 -9 -9 -12 -9 -12 0 0 7 -9 12 -20 12 -18
0 -20 -7 -20 -80z"/>
<path d="M1372 1710 c-29 -27 -30 -88 -2 -120 14 -16 31 -23 61 -24 75 -2 115
79 68 138 -27 34 -94 37 -127 6z m96 -22 c21 -21 14 -66 -13 -84 -27 -18 -46
-10 -66 28 -23 42 45 90 79 56z"/>
<path d="M1570 1648 c0 -63 3 -78 15 -78 11 0 15 12 15 49 0 32 6 55 16 65 36
37 64 10 64 -61 0 -46 3 -53 20 -53 17 0 20 7 20 53 0 55 12 77 42 77 24 0 38
-30 38 -84 0 -34 4 -46 15 -46 12 0 15 14 15 68 0 40 -5 73 -12 80 -15 15 -80
16 -96 0 -8 -8 -15 -8 -25 0 -7 6 -39 11 -70 10 l-57 -2 0 -78z"/>
<path d="M1890 1618 c0 -89 3 -108 15 -108 11 0 15 11 15 36 0 32 2 35 23 27
67 -23 117 9 117 76 0 61 -27 81 -105 79 l-65 -2 0 -108z m118 70 c7 -7 12
-26 12 -43 0 -24 -6 -35 -25 -43 -23 -11 -29 -9 -50 13 -29 28 -31 42 -8 67
18 21 53 24 71 6z"/>
<path d="M2560 1710 c-28 -28 -34 -63 -16 -98 20 -39 30 -45 79 -45 74 0 112
78 66 137 -17 21 -29 26 -65 26 -30 0 -50 -6 -64 -20z m98 -22 c21 -21 14 -66
-12 -83 -31 -20 -63 -6 -72 31 -12 46 51 85 84 52z"/>
<path d="M2750 1649 c0 -72 2 -79 20 -79 17 0 20 7 20 53 0 55 12 77 42 77 24
0 38 -30 38 -84 0 -39 3 -46 20 -46 18 0 20 7 20 54 0 59 16 82 49 71 22 -7
37 -58 29 -100 -4 -19 -1 -25 13 -25 17 0 19 8 19 68 0 40 -5 73 -12 80 -15
15 -80 16 -96 0 -8 -8 -15 -8 -25 0 -7 6 -41 11 -75 11 l-62 -1 0 -79z"/>
<path d="M3290 1650 c0 -73 2 -80 20 -80 18 0 20 7 20 80 0 73 -2 80 -20 80
-18 0 -20 -7 -20 -80z"/>
<path d="M3390 1649 c0 -72 2 -79 20 -79 16 0 19 8 22 56 3 64 23 88 56 68 12
-8 18 -27 20 -68 2 -41 7 -56 17 -56 20 0 21 132 2 149 -8 6 -41 10 -75 10
l-62 -1 0 -79z"/>
<path d="M3612 1707 c-44 -47 -20 -127 41 -139 28 -5 87 10 87 22 0 16 -19 21
-41 9 -16 -8 -28 -8 -45 0 -41 18 -27 31 35 31 33 0 62 4 65 9 9 13 -12 62
-32 77 -28 22 -86 17 -110 -9z m86 -13 c34 -23 27 -34 -23 -34 -48 0 -62 19
-27 39 23 14 24 14 50 -5z"/>
<path d="M3800 1648 c0 -63 3 -78 15 -78 10 0 15 10 15 34 0 48 15 83 39 91
40 12 24 33 -24 33 l-45 -1 0 -79z"/>
</g>
</svg>
